<svg xmlns="http://www.w3.org/2000/svg" id="Layer_1" x="0" y="0" version="1.1" viewBox="0 0 29 29" xml:space="preserve"><path d="M3 14.5a1 1 0 0 1-1-1c0-2.757 2.243-5 5-5h15a1 1 0 1 1 0 2H7c-1.654 0-3 1.346-3 3a1 1 0 0 1-1 1z"/><path d="M19.5 11.912V7.088c0-.368.401-.596.717-.408l4.052 2.412a.474.474 0 010 .815l-4.052 2.412a.474.474 0 01-.717-.407zM22 20.5H7a1 1 0 110-2h15c1.654 0 3-1.346 3-3a1 1 0 112 0c0 2.757-2.243 5-5 5z"/><path d="M9.5 17.088v4.823a.475.475 0 0 1-.717.408l-4.052-2.412a.474.474 0 0 1 0-.815l4.052-2.412a.475.475 0 0 1 .717.408z"/></svg>